<?xml version="1.0" standalone="no"?>
<!DOCTYPE svg PUBLIC "-//W3C//DTD SVG 20010904//EN"
 "http://www.w3.org/TR/2001/REC-SVG-20010904/DTD/svg10.dtd">
<svg version="1.0" xmlns="http://www.w3.org/2000/svg"
 width="519.000000pt" height="519.000000pt" viewBox="0 0 519.000000 519.000000"
 preserveAspectRatio="xMidYMid meet">
<metadata>
Created by potrace 1.10, written by Peter Selinger 2001-2011
</metadata>
<g transform="translate(0.000000,519.000000) scale(0.100000,-0.100000)"
fill="#000000" stroke="none">
<path d="M0 2595 l0 -2595 2595 0 2595 0 0 2595 0 2595 -2595 0 -2595 0 0
-2595z m2830 1913 c30 -6 78 -14 105 -18 28 -4 61 -12 75 -18 14 -5 52 -17 85
-27 33 -10 75 -24 93 -31 144 -62 165 -72 277 -138 257 -152 462 -354 610
-598 17 -29 118 -231 131 -263 111 -273 147 -554 110 -867 -8 -64 -17 -121
-21 -127 -3 -6 -10 -32 -15 -59 -19 -99 -78 -265 -129 -362 -14 -25 -36 -22
-69 9 l-32 29 24 49 c34 69 73 176 86 233 4 19 12 55 19 80 59 242 57 576 -5
770 -8 25 -14 53 -14 62 0 10 -6 32 -14 50 -8 18 -22 53 -31 78 -29 75 -94
204 -130 259 -19 29 -35 55 -35 57 0 3 -28 42 -62 87 -74 97 -213 238 -295
299 -32 23 -61 47 -64 51 -6 8 -30 23 -74 47 -11 6 -33 19 -50 29 -41 26 -225
117 -250 124 -11 3 -51 17 -90 31 -38 14 -78 26 -89 26 -10 0 -39 7 -65 15
-155 48 -452 50 -661 4 -25 -6 -63 -14 -85 -18 -22 -4 -50 -13 -62 -19 -12 -7
-31 -12 -43 -12 -12 0 -34 -6 -48 -14 -15 -8 -45 -21 -67 -29 -22 -8 -47 -18
-55 -21 -8 -3 -22 -10 -30 -15 -8 -5 -34 -18 -56 -30 -75 -38 -88 -46 -161
-94 -78 -52 -211 -166 -284 -243 -44 -47 -169 -208 -169 -218 0 -2 -15 -27
-33 -54 -70 -107 -156 -305 -178 -410 -5 -23 -13 -51 -19 -61 -5 -11 -10 -35
-10 -53 -1 -18 -7 -60 -15 -93 -30 -122 -13 -505 27 -620 5 -16 14 -48 18 -70
10 -53 31 -110 79 -218 27 -60 26 -63 -5 -92 -40 -37 -56 -32 -82 28 -13 28
-29 66 -36 82 -76 175 -126 436 -126 656 0 138 30 354 62 454 6 17 14 46 18
65 16 70 95 253 143 335 57 97 80 132 138 210 180 241 427 434 709 553 19 8
48 21 63 28 16 8 38 14 50 14 12 0 31 7 41 15 11 8 29 15 40 15 12 0 41 6 66
14 121 39 287 54 505 48 72 -2 155 -8 185 -14z m-49 -198 c7 -19 18 -30 29
-30 32 0 31 -17 0 -48 -16 -17 -30 -35 -30 -41 0 -19 -22 -12 -27 9 -3 10 -16
26 -29 35 -31 20 -30 33 1 45 14 5 25 17 25 28 0 17 8 32 17 32 2 0 9 -13 14
-30z m-289 -17 c24 -21 23 -28 -7 -47 -20 -13 -28 -14 -45 -4 -24 16 -25 26
-3 50 20 22 31 23 55 1z m-236 -24 c9 -16 -18 -30 -33 -17 -7 6 -10 14 -7 19
7 13 31 11 40 -2z m-115 -78 c-6 -9 -14 -24 -17 -33 -9 -27 -30 -22 -58 14
l-25 32 32 27 32 27 24 -26 c19 -21 21 -29 12 -41z m917 27 c20 -20 14 -47
-13 -54 -34 -8 -55 1 -55 25 0 33 45 52 68 29z m176 -84 c21 -8 20 -27 -3 -48
-19 -17 -20 -17 -31 4 -9 16 -9 25 1 36 13 16 12 16 33 8z m-1369 -14 c7 -12
-12 -50 -25 -50 -13 0 -32 38 -25 50 3 6 15 10 25 10 10 0 22 -4 25 -10z m562
-81 c32 -12 74 -74 80 -119 5 -37 2 -45 -36 -90 l-41 -49 0 -273 0 -273 23
-10 c17 -8 22 -18 22 -45 l0 -35 -140 -5 -140 -5 -3 -52 -3 -52 36 -7 c41 -7
49 -17 41 -48 -5 -21 -13 -24 -81 -31 -81 -7 -105 1 -105 37 0 10 7 29 16 43
9 14 14 40 12 67 l-3 43 -146 5 -147 5 -77 69 c-72 66 -79 70 -125 70 -63 1
-90 26 -97 90 -5 43 -3 48 31 81 42 39 62 42 111 19 35 -16 62 -63 57 -99 -3
-22 12 -41 82 -100 43 -36 54 -40 115 -45 38 -3 98 -3 135 -2 l66 4 0 143 c0
85 -4 146 -10 150 -5 3 -10 24 -10 45 0 33 5 41 35 60 l34 21 30 -22 c38 -28
43 -51 21 -95 -15 -28 -19 -63 -21 -166 -3 -152 -3 -151 95 -141 l56 6 0 268
0 269 -38 24 c-45 28 -56 41 -71 85 -22 68 22 144 97 167 36 11 54 10 99 -7z
m372 9 c20 -7 51 -28 69 -47 27 -29 32 -41 32 -83 0 -38 -6 -57 -26 -84 -15
-19 -31 -34 -38 -34 -6 -1 -21 -9 -33 -19 -23 -19 -23 -22 -23 -284 0 -246 1
-266 18 -271 25 -8 123 1 134 12 5 5 8 68 6 140 -2 109 -6 133 -21 150 -28 31
-19 72 22 99 30 20 37 22 55 10 11 -8 29 -26 40 -40 18 -24 18 -27 2 -51 -14
-22 -16 -49 -14 -174 l3 -147 127 2 127 2 65 62 c52 49 66 68 66 91 0 58 70
118 124 104 13 -3 38 -18 55 -33 57 -50 34 -143 -42 -169 -22 -7 -37 -8 -48
-1 -19 12 -39 -2 -132 -89 l-57 -54 -139 0 c-126 0 -140 -2 -152 -19 -22 -31
-74 -32 -84 -1 -6 19 -15 20 -141 20 -100 0 -134 3 -135 13 -3 33 4 63 17 74
13 10 15 53 15 288 l0 276 -30 35 c-27 30 -31 43 -31 89 0 46 5 60 28 86 23
26 58 46 101 58 3 0 21 -5 40 -11z m587 -9 c10 -17 -13 -36 -27 -22 -12 12 -4
33 11 33 5 0 12 -5 16 -11z m144 -82 c0 -14 -44 -67 -56 -67 -7 0 -22 16 -34
35 -22 35 -22 36 -4 58 11 12 23 25 29 29 9 7 64 -40 65 -55z m-1855 23 c0
-19 -6 -26 -24 -28 -29 -4 -43 15 -30 41 15 28 54 19 54 -13z m388 12 c64 -43
76 -108 31 -168 -23 -30 -25 -38 -15 -60 18 -41 14 -82 -9 -89 -25 -8 -50 10
-50 37 0 31 -28 88 -44 88 -27 0 -66 59 -66 98 1 40 20 68 65 94 38 22 54 22
88 0z m1098 -6 c49 -33 66 -75 48 -118 -14 -34 -43 -68 -58 -68 -17 0 -35 -32
-40 -72 -7 -47 -31 -69 -58 -52 -10 7 -17 20 -15 30 15 111 15 114 0 119 -8 3
-21 23 -28 43 -10 33 -9 42 7 71 17 31 73 71 98 71 6 0 26 -11 46 -24z m-1667
-153 c8 -21 -8 -38 -29 -29 -13 4 -14 10 -5 26 13 24 26 26 34 3z m2211 -8 c0
-14 -8 -21 -27 -23 -24 -3 -28 0 -28 23 0 23 4 26 28 23 19 -2 27 -9 27 -23z
m-1848 -83 c16 -19 22 -41 23 -74 0 -41 -4 -50 -30 -70 -62 -45 -17 -103 80
-103 49 0 56 -3 70 -28 14 -25 13 -30 -7 -67 -13 -21 -23 -48 -23 -60 0 -18
-5 -21 -37 -18 -29 2 -39 8 -41 23 -7 47 -13 65 -22 65 -20 0 -120 103 -130
134 -6 18 -24 42 -40 55 -26 18 -30 28 -30 67 0 51 26 94 63 106 41 13 101 -1
124 -30z m1570 3 c27 -31 37 -66 29 -100 -6 -24 -18 -39 -60 -73 -9 -7 -16
-23 -16 -35 0 -15 -24 -42 -75 -85 -67 -56 -75 -67 -75 -98 0 -35 0 -35 -42
-32 -41 3 -43 5 -43 34 0 18 -8 41 -17 51 -24 27 -22 45 7 73 20 19 31 22 64
16 33 -5 44 -2 70 20 33 28 41 61 16 71 -20 7 -45 55 -45 85 0 31 35 87 63 98
38 17 99 4 124 -25z m313 -39 c0 -31 46 -86 71 -86 10 0 19 -7 19 -15 0 -8 -8
-15 -18 -15 -23 0 -61 -39 -70 -74 -9 -34 -26 -34 -32 1 -7 38 -39 73 -67 73
-14 0 -23 6 -23 15 0 8 9 15 19 15 25 0 71 55 71 86 0 15 6 24 15 24 9 0 15
-9 15 -24z m-2352 -57 c2 -19 -2 -28 -16 -31 -40 -11 -66 24 -40 50 21 21 53
10 56 -19z m-188 -159 c0 -5 -7 -10 -15 -10 -8 0 -15 5 -15 10 0 6 7 10 15 10
8 0 15 -4 15 -10z m2686 -32 c8 -12 -24 -40 -41 -35 -5 2 -11 13 -13 25 -3 18
2 22 22 22 14 0 28 -5 32 -12z m-2641 -87 c3 -10 17 -23 30 -29 30 -14 33 -38
5 -47 -11 -4 -27 -20 -35 -36 -20 -37 -40 -37 -53 0 -6 16 -20 32 -31 36 -12
3 -21 10 -21 15 0 10 29 40 39 40 3 0 12 14 18 31 10 27 15 30 27 20 9 -7 18
-21 21 -30z m2735 -72 l29 -22 -27 -28 c-33 -35 -39 -36 -68 -3 -29 31 -29 31
-1 55 28 24 32 23 67 -2z m-2412 -115 c12 -8 29 -28 37 -45 9 -16 21 -29 28
-29 7 0 34 -20 61 -44 l49 -43 116 -1 c64 0 122 -1 129 -1 13 -1 16 -38 6 -65
-5 -14 -27 -16 -138 -16 l-131 1 -59 44 c-33 25 -65 45 -71 45 -7 0 -20 -9
-30 -20 -28 -31 -83 -26 -128 11 -32 26 -37 36 -37 72 0 59 47 107 105 107 22
0 51 -7 63 -16z m2126 -15 c34 -40 41 -72 26 -110 -29 -69 -101 -88 -166 -44
l-36 25 -55 -50 -55 -50 -137 0 c-145 0 -161 5 -161 47 0 34 29 41 150 38 58
-2 114 2 124 7 38 21 132 99 159 133 25 31 33 35 77 35 42 0 52 -4 74 -31z
m-2568 -64 c7 -18 -13 -45 -33 -45 -17 0 -27 24 -19 45 7 20 45 19 52 0z
m2931 -1 c3 -8 -2 -23 -11 -32 -14 -15 -18 -15 -31 -1 -9 9 -13 23 -9 32 8 21
43 22 51 1z m-1633 -48 c8 -14 25 -27 36 -31 29 -9 27 -58 -4 -78 -16 -11 -25
-28 -28 -52 -5 -41 0 -51 27 -56 28 -6 35 -76 8 -86 -10 -3 -25 -12 -35 -20
-9 -8 -31 -13 -50 -11 l-33 3 0 168 c0 138 3 169 15 177 25 16 47 11 64 -14z
m356 -191 l5 -210 63 -3 c48 -2 71 2 95 16 34 20 51 19 79 -6 14 -12 37 -14
112 -10 103 6 113 2 173 -57 131 -129 223 -215 251 -234 36 -25 40 -45 15 -73
-28 -31 -52 -20 -132 60 -43 42 -112 110 -155 150 l-78 73 -91 -3 -92 -3 0
-60 0 -60 72 -1 c81 -1 103 -12 103 -55 0 -32 4 -31 -105 -33 l-70 -1 -3 -67
c-3 -61 0 -70 29 -111 36 -51 35 -73 -5 -122 -22 -27 -30 -30 -80 -30 -75 0
-101 25 -100 94 0 43 5 53 37 83 l38 34 -3 164 -3 165 -75 0 -75 0 0 -60 0
-60 43 -3 c42 -3 42 -3 42 -43 0 -37 -7 -45 -34 -40 -6 1 -20 0 -33 -4 l-23
-5 2 -218 c3 -215 3 -217 25 -220 12 -2 38 -21 57 -43 30 -33 36 -46 36 -85 0
-31 -7 -56 -21 -75 -24 -34 -87 -69 -122 -69 -27 0 -101 50 -116 79 -26 48 -7
133 38 167 11 9 14 52 15 233 1 216 1 222 -21 240 -24 22 -22 53 8 86 26 29
21 125 -7 125 -22 0 -18 63 6 85 29 26 25 95 -6 95 -10 0 -14 12 -14 40 0 30
5 42 21 51 18 9 20 16 14 57 -4 26 -13 51 -21 55 -8 4 -14 19 -14 32 0 33 65
97 93 93 22 -3 22 -7 27 -213z m238 156 c15 -1 16 -57 0 -67 -6 -4 -40 -9 -75
-11 -53 -3 -64 -1 -73 16 -29 56 15 74 148 62z m-1521 -111 c18 -10 39 -31 49
-45 l16 -25 229 0 c251 0 253 0 233 -59 l-9 -26 -236 -5 c-150 -3 -241 -9
-250 -16 -69 -55 -162 -20 -184 69 -8 30 22 82 62 108 35 24 50 24 90 -1z
m2248 -21 c25 -25 30 -37 29 -77 0 -37 -6 -54 -24 -72 -32 -32 -100 -39 -137
-14 -25 17 -55 20 -268 24 l-240 5 0 40 0 40 225 2 225 3 25 29 c57 67 111 73
165 20z m-2620 -29 c0 -18 -6 -26 -23 -28 -27 -4 -40 22 -22 44 19 22 45 13
45 -16z m2926 20 c26 -14 24 -39 -3 -49 -29 -11 -38 -6 -38 23 0 36 10 42 41
26z m-1786 -85 l0 -40 -82 -3 -83 -3 0 40 c0 22 5 42 13 45 6 2 44 4 82 3 l70
-2 0 -40z m753 -3 l3 -43 -78 3 c-77 3 -78 3 -81 31 -6 53 1 58 80 55 l73 -3
3 -43z m-1317 -128 c23 -21 11 -48 -45 -94 -23 -19 -50 -52 -60 -73 -12 -25
-32 -45 -59 -58 -40 -21 -42 -21 -74 -4 -52 28 -66 50 -66 102 0 39 4 50 31
75 36 32 86 37 118 13 29 -22 43 -18 85 20 45 40 46 41 70 19z m1800 -23 c40
-37 45 -39 61 -24 9 8 37 18 62 20 42 5 48 3 81 -30 41 -41 46 -83 15 -127
-24 -33 -81 -62 -107 -54 -38 14 -83 55 -83 77 0 15 -18 36 -55 65 -31 23 -58
49 -62 58 -5 14 22 54 37 54 4 0 26 -18 51 -39z m-2387 -4 l25 -23 -19 -32
c-23 -38 -35 -40 -51 -9 -7 12 -17 25 -23 29 -7 4 -2 16 14 32 13 15 25 26 26
26 2 0 14 -10 28 -23z m1354 14 c9 -1 12 -13 10 -38 l-3 -38 -276 -3 -276 -2
-139 -127 c-77 -70 -144 -136 -149 -148 -7 -12 -22 -21 -43 -23 -26 -3 -34 1
-43 21 -7 15 -8 31 -3 39 11 17 260 251 312 293 l37 30 280 -2 c154 -1 286 -2
293 -2z m1601 -15 c22 -23 22 -25 6 -49 -24 -38 -42 -40 -65 -8 -24 35 -24 36
-3 61 23 26 35 25 62 -4z m-1889 -156 c7 -12 10 -67 9 -133 l-2 -112 42 -41
c53 -54 55 -88 6 -140 -33 -35 -37 -36 -85 -32 -63 6 -89 34 -90 96 0 31 7 53
26 77 22 29 25 41 22 97 l-3 63 -76 1 c-90 0 -109 7 -109 35 0 35 29 48 102
49 66 0 70 2 106 45 18 21 39 19 52 -5z m241 -4 c6 -13 22 -29 35 -35 34 -15
34 -67 -1 -83 l-25 -11 0 -218 c0 -210 1 -218 23 -246 44 -56 57 -88 48 -120
-15 -51 -30 -72 -71 -98 -46 -29 -67 -31 -118 -9 -56 25 -77 58 -77 126 0 51
3 60 34 92 19 20 41 36 48 36 24 0 28 42 23 245 l-5 200 -37 3 c-32 3 -38 7
-38 27 0 40 11 55 39 55 17 0 36 11 53 30 32 36 55 38 69 6z m-1199 -74 c6
-22 16 -34 33 -38 33 -8 31 -25 -4 -46 -16 -9 -31 -26 -33 -39 -5 -35 -22 -33
-42 6 -11 20 -30 38 -43 41 -29 8 -30 22 0 33 12 5 31 25 42 45 23 42 36 42
47 -2z m609 -82 c33 -18 22 -52 -41 -117 -33 -35 -60 -70 -60 -80 0 -24 -40
-63 -65 -63 -57 0 -75 93 -23 118 14 7 57 44 95 82 37 38 69 69 71 70 2 0 12
-5 23 -10z m1560 -65 c42 -41 82 -75 90 -75 20 0 49 -31 49 -53 0 -27 -38 -67
-63 -67 -27 0 -57 28 -57 54 0 13 -28 48 -70 89 -39 38 -70 73 -70 79 0 12 29
48 38 48 3 0 40 -34 83 -75z m614 65 c10 -15 -14 -50 -34 -50 -21 0 -33 22
-25 45 7 17 49 20 59 5z m-2027 -52 c20 -20 14 -48 -12 -60 -35 -15 -56 -4
-56 31 0 38 41 56 68 29z m1236 -4 c22 -21 20 -40 -5 -58 -29 -20 -69 -2 -69
30 0 39 46 56 74 28z m-1807 -100 c9 -24 -10 -49 -38 -49 -20 0 -25 6 -27 33
-3 30 -1 32 28 32 19 0 33 -6 37 -16z m2462 2 c23 -28 -12 -63 -50 -51 -19 6
-26 44 -12 58 11 12 50 8 62 -7z m-1901 -18 c7 -7 12 -19 12 -28 0 -19 -63
-82 -102 -101 -25 -13 -88 -84 -88 -99 0 -4 -11 -12 -24 -18 -54 -24 -94 63
-41 92 11 6 41 30 67 54 26 23 52 42 59 42 6 0 29 16 50 35 43 38 49 41 67 23z
m1261 -23 c21 -19 44 -35 50 -35 7 0 34 -20 60 -45 26 -25 53 -45 59 -45 11 0
42 -38 42 -52 0 -16 -41 -48 -62 -48 -25 0 -58 27 -58 46 0 17 -70 83 -89 84
-19 0 -91 74 -91 93 0 15 25 36 42 37 5 0 25 -16 47 -35z m-1931 -147 c18 -18
15 -46 -6 -57 -31 -17 -58 17 -40 52 10 20 29 22 46 5z m2617 -23 c0 -25 -4
-30 -27 -33 -25 -3 -28 0 -28 26 0 35 8 44 35 40 15 -2 20 -10 20 -33z m-706
-58 c26 -42 27 -69 4 -105 -29 -44 -56 -61 -96 -62 -51 0 -88 23 -111 70 -16
32 -16 43 -6 74 12 37 59 81 95 88 31 7 91 -28 114 -65z m-1131 43 c95 -58 49
-211 -63 -210 -117 1 -152 154 -50 217 30 18 76 15 113 -7z m-553 0 c4 -6 1
-17 -5 -26 -10 -11 -16 -12 -26 -3 -11 9 -11 15 -3 25 14 17 25 18 34 4z
m2110 -90 c0 -18 -6 -26 -22 -28 -20 -3 -23 1 -23 28 0 27 3 31 23 28 16 -2
22 -10 22 -28z m-2433 -47 c10 -9 18 -24 18 -33 0 -40 -62 -53 -84 -18 -8 13
-5 23 14 43 28 30 28 30 52 8z m2788 -8 c23 -24 23 -25 5 -45 -26 -28 -69 -23
-73 8 -3 22 22 62 38 62 3 0 17 -11 30 -25z m-2500 -29 c0 -32 -18 -43 -37
-23 -20 20 -10 47 17 47 15 0 20 -7 20 -24z m2270 5 c0 -22 -25 -45 -40 -36
-5 3 -10 17 -10 31 0 19 5 24 25 24 18 0 25 -5 25 -19z m-2016 -30 c17 -18 17
-21 1 -45 -22 -34 -61 -35 -76 -2 -24 52 36 90 75 47z m1740 3 c21 -21 20 -37
-3 -58 -29 -26 -65 -17 -69 17 -2 16 -1 35 2 43 7 19 51 18 70 -2z m-1935
-128 c15 -18 4 -46 -19 -46 -28 0 -45 27 -30 45 16 19 34 19 49 1z m2079 -14
c4 -28 -24 -40 -45 -19 -14 13 -14 19 -3 32 18 22 44 15 48 -13z m-284 -43
c25 -20 25 -21 10 -50 -19 -37 -48 -36 -71 2 -14 24 -14 27 3 47 23 27 25 27
58 1z m-249 -24 c0 -5 -10 -11 -22 -13 -16 -2 -23 2 -23 13 0 11 7 15 23 13
12 -2 22 -7 22 -13z m-1130 -25 c0 -16 -6 -26 -19 -28 -25 -5 -39 12 -31 38
10 31 50 24 50 -10z m2138 -88 c15 -14 17 -42 17 -324 0 -267 -2 -312 -16
-333 -16 -25 -64 -36 -64 -15 0 6 -11 15 -24 21 -20 10 -30 8 -56 -11 l-32
-23 -61 19 c-127 40 -198 157 -167 277 12 51 62 127 82 127 5 0 16 6 23 14 19
19 96 29 129 16 15 -5 32 -8 37 -4 5 3 9 57 9 120 l0 115 33 14 c35 15 62 11
90 -13z m-2775 -11 c59 -23 124 -90 140 -141 16 -54 1 -113 -40 -155 -27 -27
-28 -31 -12 -40 10 -5 30 -23 46 -40 24 -25 28 -38 28 -83 0 -61 -19 -102 -67
-146 -48 -44 -94 -56 -233 -63 -111 -5 -128 -4 -143 11 -15 16 -17 48 -17 335
0 233 3 320 12 329 20 20 233 15 286 -7z m1062 -34 c29 -44 56 -81 107 -153 5
-5 13 -19 19 -30 15 -26 42 -30 52 -7 4 10 30 51 57 91 28 40 55 82 61 93 30
52 45 60 113 57 l66 -3 3 -325 c2 -321 2 -325 -19 -342 -27 -23 -67 -23 -91
-1 -16 14 -18 35 -18 205 0 103 -3 188 -6 188 -13 0 -44 -22 -44 -31 0 -12
-101 -169 -125 -192 -9 -9 -20 -17 -25 -17 -12 0 -50 40 -61 65 -12 26 -28 51
-60 95 -14 19 -29 43 -32 53 -4 9 -13 17 -22 17 -13 0 -15 -25 -15 -175 0
-145 -3 -180 -16 -200 -19 -30 -62 -33 -99 -9 l-25 16 0 317 c0 233 3 320 12
329 7 7 39 12 73 12 l60 0 35 -53z m1150 39 c0 -15 -24 -28 -34 -19 -13 14 -5
33 14 33 11 0 20 -6 20 -14z m-1867 -7 c13 -6 32 -27 41 -46 16 -33 16 -36 -4
-68 -33 -54 -87 -61 -132 -18 -38 36 -37 73 3 112 33 33 54 38 92 20z m1427
-6 c34 -23 40 -33 40 -72 0 -48 -33 -81 -80 -81 -38 0 -56 14 -80 58 -16 31 3
77 39 97 34 19 52 18 81 -2z m-1149 -84 c6 -12 8 -35 5 -52 -8 -40 8 -57 55
-57 28 0 41 -5 49 -19 27 -51 -8 -119 -54 -107 -15 4 -29 -1 -39 -12 -13 -14
-14 -29 -7 -90 10 -79 15 -92 33 -92 7 0 29 -11 50 -25 28 -20 37 -32 37 -55
0 -32 -39 -70 -72 -70 -31 0 -101 36 -129 67 -52 57 -59 78 -59 167 0 96 -5
116 -29 116 -26 0 -41 21 -41 55 0 38 9 51 43 64 25 10 27 15 27 64 0 30 3 57
7 60 3 4 30 7 59 7 44 0 55 -4 65 -21z m1555 -125 c37 -15 70 -45 101 -91 11
-16 15 -57 15 -165 1 -161 -3 -185 -37 -194 -76 -19 -95 12 -95 164 0 87 -4
118 -16 137 -21 32 -69 33 -101 3 -22 -20 -23 -29 -23 -146 0 -141 -8 -162
-64 -162 -61 0 -61 0 -64 225 -2 148 0 211 9 221 17 20 76 18 88 -3 9 -17 12
-16 53 4 52 26 83 28 134 7z m-1806 -219 c0 -208 -1 -215 -21 -226 -23 -12
-84 -4 -94 12 -8 12 -13 417 -6 424 2 3 31 5 63 5 l58 0 0 -215z m1411 193 c0
-13 1 -108 1 -212 0 -209 -2 -216 -63 -216 -56 0 -59 11 -59 241 l0 209 60 0
c55 0 60 -2 61 -22z"/>
<path d="M2321 3944 c-20 -25 -20 -28 -4 -55 30 -51 103 -29 103 31 0 50 -66
66 -99 24z"/>
<path d="M1582 3383 c2 -22 8 -28 28 -28 20 0 26 6 28 28 3 24 0 27 -28 27
-28 0 -31 -3 -28 -27z"/>
<path d="M2724 3944 c-25 -38 -9 -78 33 -82 54 -5 84 62 41 92 -32 23 -55 20
-74 -10z"/>
<path d="M3494 3395 c-8 -21 2 -45 19 -45 20 0 40 27 33 45 -7 19 -45 20 -52
0z"/>
<path d="M1993 3919 c-8 -8 -8 -18 -1 -35 14 -31 31 -30 48 2 12 22 12 27 0
34 -20 13 -34 12 -47 -1z"/>
<path d="M3093 3923 c-18 -7 -16 -52 2 -59 19 -8 45 13 45 36 0 14 -23 34 -33
29 -1 0 -8 -3 -14 -6z"/>
<path d="M1751 3688 c-12 -19 -11 -23 4 -34 13 -9 23 -10 36 -3 22 11 23 14 9
40 -14 25 -32 24 -49 -3z"/>
<path d="M3327 3704 c-12 -12 -8 -52 6 -57 27 -9 48 5 45 32 -3 26 -35 41 -51
25z"/>
<path d="M1487 3122 c-22 -24 -21 -39 1 -51 12 -6 23 -5 35 4 22 16 22 28 -1
49 -18 15 -20 15 -35 -2z"/>
<path d="M3594 3116 c-10 -26 4 -48 28 -44 17 2 23 10 23 28 0 18 -6 26 -23
28 -13 2 -25 -3 -28 -12z"/>
<path d="M2934 2135 c-10 -25 4 -45 30 -45 25 0 44 30 31 50 -10 15 -55 12
-61 -5z"/>
<path d="M2742 1833 c-7 -3 -18 -16 -23 -30 -21 -57 51 -100 85 -51 21 30 20
44 -4 68 -20 20 -33 23 -58 13z"/>
<path d="M1436 2834 c-8 -7 -12 -23 -9 -34 9 -36 63 -18 63 21 0 22 -37 31
-54 13z"/>
<path d="M3651 2836 c-28 -34 16 -75 47 -44 14 14 16 48 3 48 -5 0 -16 2 -24
5 -7 3 -19 -1 -26 -9z"/>
<path d="M1470 2555 c-18 -21 -5 -45 24 -45 30 0 40 13 31 40 -7 24 -37 26
-55 5z"/>
<path d="M3599 2549 c-12 -23 -4 -35 25 -41 22 -4 42 23 33 46 -9 23 -44 20
-58 -5z"/>
<path d="M2124 2136 c-9 -22 15 -48 40 -44 15 2 21 10 21 28 0 20 -6 26 -28
28 -18 2 -29 -2 -33 -12z"/>
<path d="M2338 1829 c-33 -19 -41 -47 -21 -74 22 -29 63 -33 86 -7 24 26 21
57 -8 76 -28 19 -34 19 -57 5z"/>
<path d="M3080 1851 c0 -48 48 -66 64 -24 12 30 -4 53 -35 53 -25 0 -29 -4
-29 -29z"/>
<path d="M1982 1868 c-18 -18 -14 -42 9 -57 18 -10 26 -11 45 0 40 21 25 69
-21 69 -12 0 -26 -5 -33 -12z"/>
<path d="M3888 1052 c-15 -9 -35 -31 -44 -48 -14 -25 -15 -34 -4 -55 22 -42
42 -59 72 -59 57 0 68 14 68 85 0 55 -3 66 -22 79 -27 19 -35 19 -70 -2z"/>
<path d="M1187 1266 c-23 -18 -30 -91 -11 -107 19 -15 95 -15 124 1 32 17 37
58 9 85 -28 26 -100 39 -122 21z"/>
<path d="M1186 1018 c-12 -7 -16 -23 -16 -62 0 -60 6 -66 72 -66 83 0 132 77
74 116 -29 18 -106 26 -130 12z"/>
</g>
</svg>
